<?xml version="1.0" encoding="UTF-8"?>
<svg xmlns="http://www.w3.org/2000/svg" viewBox="35 37 186 186" width="256" height="256">
  <rect x="44" y="52" width="168" height="168" rx="20" ry="20" fill="#F5F7FA" stroke="#1B2B34" stroke-width="6"/>
  <path d="M 50 58 L 206 58 Q 212 58 212 64 L 212 88 L 44 88 L 44 64 Q 44 58 50 58 Z" fill="#0E7C86" stroke="#1B2B34" stroke-width="6" stroke-linejoin="round"/>
  <rect x="72" y="40" width="14" height="28" rx="7" fill="#1B2B34"/>
  <rect x="121" y="40" width="14" height="28" rx="7" fill="#1B2B34"/>
  <rect x="170" y="40" width="14" height="28" rx="7" fill="#1B2B34"/>
  <circle cx="112" cy="148" r="34" fill="#0E7C86"/>
  <circle cx="126" cy="148" r="28" fill="#F5F7FA"/>
  <polygon points="158,132 163,146 178,146 166,155 171,170 158,161 145,170 150,155 138,146 153,146" fill="#D4A84B"/>
  <circle cx="76" cy="196" r="7" fill="#0E7C86" opacity="0.4"/>
  <circle cx="108" cy="196" r="7" fill="#0E7C86" opacity="0.4"/>
  <circle cx="140" cy="196" r="7" fill="#0E7C86" opacity="0.4"/>
  <circle cx="172" cy="196" r="7" fill="#0E7C86" opacity="0.4"/>
</svg>
