<?xml version="1.0" encoding="UTF-8"?>
<svg xmlns="http://www.w3.org/2000/svg" viewBox="0 0 548 168" width="548" height="168">
  <g transform="translate(0, 0) scale(0.857142857)">
    <rect x="44" y="52" width="168" height="168" rx="20" ry="20" fill="#2D3A44" stroke="#E8EDF2" stroke-width="6"/>
    <path d="M 50 58 L 206 58 Q 212 58 212 64 L 212 88 L 44 88 L 44 64 Q 44 58 50 58 Z" fill="#0E7C86" stroke="#E8EDF2" stroke-width="6" stroke-linejoin="round"/>
    <rect x="72" y="40" width="14" height="28" rx="7" fill="#E8EDF2"/>
    <rect x="121" y="40" width="14" height="28" rx="7" fill="#E8EDF2"/>
    <rect x="170" y="40" width="14" height="28" rx="7" fill="#E8EDF2"/>
    <circle cx="112" cy="148" r="34" fill="#0E7C86"/>
    <circle cx="126" cy="148" r="28" fill="#2D3A44"/>
    <polygon points="158,132 163,146 178,146 166,155 171,170 158,161 145,170 150,155 138,146 153,146" fill="#D4A84B"/>
    <circle cx="76" cy="196" r="7" fill="#0E7C86" opacity="0.55"/>
    <circle cx="108" cy="196" r="7" fill="#0E7C86" opacity="0.55"/>
    <circle cx="140" cy="196" r="7" fill="#0E7C86" opacity="0.55"/>
    <circle cx="172" cy="196" r="7" fill="#0E7C86" opacity="0.55"/>
  </g>
  <g transform="translate(167, 84)">
    <text x="0" y="-16"
          font-family="'Segoe UI', 'Inter', system-ui, -apple-system, sans-serif"
          font-size="48" font-weight="600" fill="#F0F4F8"
          text-anchor="start" dominant-baseline="middle"
          letter-spacing="-0.5">Hijri Calendar</text>
    <text x="0" y="20"
          font-family="'Noto Naskh Arabic', 'Noto Sans Arabic', sans-serif"
          font-size="28" fill="#A8B4C0"
          text-anchor="start" dominant-baseline="middle"
          direction="rtl" unicode-bidi="plaintext">التقويم الهجري</text>
  </g>
</svg>
